<svg viewBox="0 0 32 32" xmlns="http://www.w3.org/2000/svg" xmlns:xlink="http://www.w3.org/1999/xlink" width="32.000000" height="32.000000" fill="none" customFrame="#000000">
	<rect id="Social Icons" width="32.000000" height="32.000000" x="0.000000" y="0.000000" fill="rgb(255,255,255)" fill-opacity="0" />
	<path id="BG" d="M0 16C0 7.16344 7.16344 0 16 0C24.8366 0 32 7.16344 32 16C32 24.8366 24.8366 32 16 32C7.16344 32 0 24.8366 0 16Z" opacity="0.100000001" fill="rgb(29,30,37)" fill-rule="evenodd" />
	<path id="Path" d="M22.2281 20.625L22.9375 16L18.5 16L18.5 13C18.5 11.7344 19.1188 10.5 21.1063 10.5L23.125 10.5L23.125 6.5625C23.125 6.5625 21.2938 6.25 19.5438 6.25C15.8875 6.25 13.5 8.46563 13.5 12.475L13.5 16L9.4375 16L9.4375 20.625L13.5 20.625L13.5 31.8062C14.3156 31.9344 15.15 32 16 32C16.85 32 17.6844 31.9344 18.5 31.8062L18.5 20.625L22.2281 20.625Z" fill="rgb(29,30,37)" fill-rule="nonzero" />
</svg>
